<svg width="59" height="47" xmlns="http://www.w3.org/2000/svg"><path d="M52.464 11.713a25.494 25.494 0 0 0 5.948-6.132c-2.13.918-4.443 1.58-6.83 1.836A11.828 11.828 0 0 0 56.798.881a23.35 23.35 0 0 1-7.528 2.864A11.832 11.832 0 0 0 40.604 0c-6.573 0-11.86 5.324-11.86 11.86 0 .918.11 1.836.293 2.717A33.712 33.712 0 0 1 4.583 2.167 11.77 11.77 0 0 0 2.967 8.15c0 4.113 2.093 7.748 5.287 9.878a11.944 11.944 0 0 1-5.36-1.505v.146c0 5.765 4.075 10.538 9.51 11.64a12.54 12.54 0 0 1-3.121.404c-.771 0-1.506-.073-2.24-.184 1.505 4.7 5.875 8.115 11.089 8.226a23.753 23.753 0 0 1-14.724 5.067c-.992 0-1.91-.037-2.864-.147C5.794 45.054 12.037 47 18.756 47c21.811 0 33.745-18.066 33.745-33.744 0-.515 0-1.029-.037-1.543Z" fill="#FFFFFF" fill-rule="nonzero"/></svg>
