<svg width="80" height="58" xmlns="http://www.w3.org/2000/svg"><path d="M36.009 48.338a2.378 2.378 0 0 1 2.375 2.385c0 1.254-1 2.383-2.375 2.383a2.378 2.378 0 0 1-2.374-2.383 2.378 2.378 0 0 1 2.374-2.385Zm36.743-14.554a2.378 2.378 0 0 1-2.375-2.385c0-1.254 1-2.383 2.375-2.383a2.377 2.377 0 0 1 2.374 2.383c0 1.255-1.125 2.385-2.374 2.385Zm0-9.662c-4 0-7.249 3.262-7.249 7.277 0 .753.125 1.506.375 2.26l-23.87 12.797c-1.375-2.007-3.624-3.137-5.999-3.137-2.75 0-5.249 1.632-6.499 4.016L8.015 36.042c-2.25-1.255-4-4.893-3.75-8.407.126-1.756.75-3.136 1.625-3.638.625-.377 1.25-.251 2.125.125 5.749 3.011 24.495 12.924 25.245 13.3 1.25.502 1.874.753 3.999-.25L75.75 17.095c.625-.251 1.25-.753 1.25-1.632 0-1.129-1.125-1.63-1.125-1.63-2.25-1.005-5.624-2.636-8.873-4.141C60.004 6.43 52.006 2.666 48.507.784c-3-1.631-5.5-.251-5.874 0C26.76 8.814 4.89 19.605 3.64 20.358 1.516 21.613.14 24.248.016 27.51c-.25 5.144 2.375 10.54 6.124 12.422l22.746 11.794C29.386 55.24 32.51 58 36.009 58c4 0 7.124-3.137 7.249-7.152l24.994-13.551c1.25 1.004 2.875 1.506 4.5 1.506 3.999 0 7.248-3.263 7.248-7.278 0-4.14-3.25-7.403-7.248-7.403Z" fill="#FFFFFF" fill-rule="nonzero"/></svg>
