<svg width="163" height="40" viewBox="0 0 163 40" xmlns="http://www.w3.org/2000/svg">
    <defs>
        <linearGradient x1="75.129%" y1="24.472%" x2="17.304%" y2="81.662%" id="qtrfpkh5pa">
            <stop stop-color="#F21947" offset="0%"/>
            <stop stop-color="#F0184F" offset="23.65%"/>
            <stop stop-color="#E91567" offset="37.13%"/>
            <stop stop-color="#DE108C" offset="53.93%"/>
            <stop stop-color="#D008C0" offset="73.4%"/>
            <stop stop-color="#BE00FF" offset="100%"/>
        </linearGradient>
    </defs>
    <g fill-rule="nonzero" fill="none">
        <path d="m0 29.67 14.816-14.835-5.817-5.824h17.998v18.022l-5.817-5.825-6.362 6.371L27.222 40H39.95l-7.18-7.19c4.668-3.256 7.728-8.66 7.728-14.788C40.497 8.068 32.44 0 22.499 0H0v29.67z" fill="url(#qtrfpkh5pa)"/>
        <g fill="#FFF">
            <path d="M95.785 16.116c1.392 1.36 2.089 3.412 2.089 6.153v10.54H91.42v-9.486c0-2.515-1.008-3.774-3.022-3.774-1.107 0-1.997.363-2.665 1.088-.668.724-1.001 1.814-1.001 3.263v8.909h-6.451V7.58h6.45v8.5a7.051 7.051 0 0 1 2.479-1.494c.95-.341 1.97-.51 3.056-.51 2.285-.003 4.126.68 5.518 2.039zM105.483 31.89c-1.585-.814-2.826-1.949-3.72-3.398-.894-1.45-1.341-3.095-1.341-4.93 0-1.815.447-3.447 1.342-4.896.893-1.45 2.127-2.58 3.7-3.383 1.573-.805 3.356-1.207 5.35-1.207 1.991 0 3.78.402 5.364 1.207 1.583.804 2.819 1.927 3.701 3.365.882 1.44 1.324 3.076 1.324 4.913 0 1.836-.442 3.48-1.324 4.93-.882 1.452-2.116 2.585-3.7 3.4-1.586.817-3.374 1.224-5.366 1.224-1.97 0-3.746-.407-5.33-1.224zm8.114-5.083c.724-.782 1.086-1.864 1.086-3.246 0-1.36-.362-2.425-1.086-3.197-.724-.77-1.653-1.156-2.784-1.156-1.133 0-2.06.386-2.784 1.156-.724.772-1.086 1.836-1.086 3.197 0 1.384.362 2.466 1.086 3.246.724.781 1.653 1.172 2.784 1.172 1.131.002 2.06-.39 2.784-1.172zM143.037 14.381l-7.605 18.428h-6.655l-7.57-18.428h6.62l4.413 11.254 4.652-11.254zM162.899 25.228h-13.377c.27.952.798 1.682 1.577 2.192.782.51 1.76.765 2.938.765.882 0 1.646-.124 2.29-.373.647-.25 1.297-.658 1.953-1.225l3.394 3.537c-1.788 1.994-4.403 2.991-7.843 2.991-2.15 0-4.04-.407-5.67-1.224-1.63-.815-2.893-1.95-3.786-3.4-.895-1.45-1.342-3.094-1.342-4.93 0-1.814.436-3.438 1.308-4.88.871-1.438 2.076-2.567 3.616-3.382 1.54-.817 3.27-1.225 5.196-1.225 1.833 0 3.497.381 4.992 1.14a8.666 8.666 0 0 1 3.547 3.298c.872 1.44 1.308 3.145 1.308 5.116.002.047-.033.579-.101 1.6zm-12.207-5.713c-.668.566-1.093 1.338-1.273 2.312h7.537c-.182-.974-.605-1.746-1.273-2.312-.668-.566-1.5-.85-2.496-.85-.994 0-1.826.284-2.495.85zM64.372 26.485h-4.143v6.324h-6.247v-23.8h10.865c2.15 0 4.018.357 5.603 1.071 1.584.714 2.805 1.735 3.666 3.06.861 1.326 1.291 2.886 1.291 4.674 0 1.724-.401 3.225-1.204 4.505-.805 1.28-1.953 2.285-3.447 3.01l5.127 7.48h-7.198l-4.313-6.324zm3.193-11.253c-.703-.611-1.744-.918-3.125-.918h-4.21v6.97h4.21c1.381 0 2.422-.301 3.125-.902.7-.6 1.051-1.455 1.051-2.568 0-1.109-.353-1.97-1.051-2.582z"/>
        </g>
    </g>
</svg>
