<?xml version="1.0" encoding="utf-8"?>
<!-- Generator: Adobe Illustrator 26.0.3, SVG Export Plug-In . SVG Version: 6.00 Build 0)  -->
<svg version="1.1" id="Layer_1" xmlns="http://www.w3.org/2000/svg" xmlns:xlink="http://www.w3.org/1999/xlink" x="0px" y="0px"
	 viewBox="0 0 190.15 148.89" style="enable-background:new 0 0 190.15 148.89;" xml:space="preserve">
<style type="text/css">
	.st0{fill:#150335;}
	.st1{fill:#BE00FF;}
	.st2{fill:#FFFFFF;}
</style>
<g>
	<path class="st1" d="M98.37,148.89v-22.76h91.78v22.76H98.37z"/>
	<path class="st2" d="M71.16,126.04c7.85-1.89,12.17-4.78,15.36-7.91c-2.27-2.62-4.41-5.37-6.27-8.36
		c-2.71-4.35-4.82-8.98-6.4-13.83l-0.05-0.16l-0.03,0.02l-0.94,0.74c-3.16,2.15-6.83,3.22-11,3.22c-3.29,0-5.91-1.01-7.87-3.03
		c-1.96-2.02-2.94-4.99-2.94-8.91V53.87h23.52l0-26.93H51.02V0H14.99v26.93H0v26.93h14.99v34.52c0,13.15,3.67,22.98,11,29.49
		c7.33,6.52,17.57,9.77,30.72,9.77C61.79,127.62,66.14,127.21,71.16,126.04z"/>
</g>
</svg>
