<svg xmlns="http://www.w3.org/2000/svg" xmlns:xlink="http://www.w3.org/1999/xlink" version="1.1" id="Layer_1" x="0px" y="0px" style="enable-background:new 0 0 707.91 421.82;" xml:space="preserve" viewBox="100 129.16 507.91 163.5">
<style type="text/css">
	.st0{fill:#150335;}
	.st1{fill:#BE00FF;}
	.st2{fill:#FFFFFF;}
</style>
<g>
	<path class="st2" d="M243.38,271.61c-11.25,0-21.24-2.28-29.96-6.83c-8.72-4.55-15.59-10.84-20.58-18.87   c-4.99-8.03-7.49-17.16-7.49-27.4c0-10.37,2.5-19.57,7.49-27.6c4.99-8.03,11.86-14.32,20.58-18.87c8.72-4.55,18.71-6.83,29.96-6.83   s21.27,2.27,30.06,6.83c8.79,4.55,15.68,10.84,20.68,18.87c4.99,8.03,7.49,17.23,7.49,27.6c0,10.24-2.5,19.38-7.49,27.4   c-5,8.03-11.89,14.32-20.68,18.87C264.66,269.33,254.64,271.61,243.38,271.61z M243.38,242.97c4.05,0,7.69-0.95,10.91-2.84   c3.22-1.9,5.81-4.71,7.78-8.44c1.96-3.73,2.94-8.19,2.94-13.37c0-5.31-0.98-9.74-2.94-13.28c-1.96-3.54-4.56-6.26-7.78-8.16   c-3.22-1.89-6.86-2.84-10.91-2.84c-4.04,0-7.68,0.95-10.91,2.84c-3.22,1.9-5.81,4.62-7.77,8.16c-1.96,3.54-2.94,7.97-2.94,13.28   c0,5.18,0.98,9.64,2.94,13.37c1.96,3.73,4.55,6.54,7.77,8.44C235.7,242.02,239.34,242.97,243.38,242.97z"/>
	<polygon class="st2" points="389.8,269.9 433.42,269.9 387.13,211.17 429.82,166.91 387.15,166.91 350.35,202.7 350.35,129.16    314.31,129.16 314.31,269.9 350.35,269.9 350.35,244.94 361.22,233.87  "/>
	<path class="st2" d="M484.73,171.08c-3.77,2.18-6.92,5.02-9.57,8.39v-12.56h-34.52V269.9h36.03v-47.23   c0-8.98,2.28-15.46,6.83-19.44c4.56-3.98,10.49-5.97,17.83-5.97c1.26,0,2.53,0.03,3.79,0.1c1.26,0.07,2.72,0.22,4.37,0.48V165.2   C499.74,165.2,491.49,167.16,484.73,171.08z"/>
	<path class="st1" d="M513.08,292.66V269.9h94.83v22.76H513.08z"/>
	<path class="st2" d="M171.16,270c7.85-1.89,12.17-4.78,15.36-7.91c-2.27-2.62-4.41-5.37-6.27-8.36c-2.71-4.35-4.82-8.98-6.4-13.83   l-0.05-0.16l-0.03,0.02l-0.94,0.74c-3.16,2.15-6.83,3.22-11,3.22c-3.29,0-5.91-1.01-7.87-3.03c-1.96-2.02-2.94-4.99-2.94-8.91   v-33.95h23.52l0-26.93h-23.52v-26.93h-36.04v26.93H100v26.93h14.99v34.52c0,13.15,3.67,22.98,11,29.49   c7.33,6.52,17.57,9.77,30.72,9.77C161.79,271.58,166.14,271.17,171.16,270z"/>
</g>
</svg>